G75*
%MOIN*%
%OFA0B0*%
%FSLAX25Y25*%
%IPPOS*%
%LPD*%
%AMOC8*
5,1,8,0,0,1.08239X$1,22.5*
%
%ADD10C,0.00000*%
%ADD11C,0.00200*%
%ADD12C,0.00500*%
%ADD13R,0.00984X0.00984*%
%ADD14C,0.00800*%
%ADD15C,0.00600*%
D10*
X0001500Y0030494D02*
X0001500Y0145455D01*
X0145201Y0145455D01*
X0145201Y0030494D01*
X0001500Y0030494D01*
D11*
X0006565Y0060094D02*
X0008033Y0060094D01*
X0008400Y0060461D01*
X0008400Y0061195D01*
X0008033Y0061562D01*
X0007299Y0061562D01*
X0007299Y0060828D01*
X0006565Y0060094D02*
X0006198Y0060461D01*
X0006198Y0061195D01*
X0006565Y0061562D01*
X0006198Y0062304D02*
X0008400Y0063772D01*
X0006198Y0063772D01*
X0006198Y0064514D02*
X0006198Y0065615D01*
X0006565Y0065982D01*
X0008033Y0065982D01*
X0008400Y0065615D01*
X0008400Y0064514D01*
X0006198Y0064514D01*
X0006198Y0062304D02*
X0008400Y0062304D01*
X0013600Y0066828D02*
X0014334Y0066094D01*
X0015068Y0066828D01*
X0015068Y0068296D01*
X0015810Y0067929D02*
X0015810Y0066461D01*
X0016177Y0066094D01*
X0016911Y0066094D01*
X0017278Y0066461D01*
X0018020Y0066461D02*
X0018020Y0067929D01*
X0018387Y0068296D01*
X0019121Y0068296D01*
X0019488Y0067929D01*
X0019488Y0066461D02*
X0019121Y0066094D01*
X0018387Y0066094D01*
X0018020Y0066461D01*
X0017278Y0067929D02*
X0016911Y0068296D01*
X0016177Y0068296D01*
X0015810Y0067929D01*
X0013600Y0068296D02*
X0013600Y0066828D01*
X0024100Y0066828D02*
X0025201Y0066828D01*
X0025568Y0067195D01*
X0025568Y0067929D01*
X0025201Y0068296D01*
X0024100Y0068296D01*
X0024100Y0066094D01*
X0024834Y0066828D02*
X0025568Y0066094D01*
X0026310Y0066094D02*
X0027778Y0068296D01*
X0028520Y0068296D02*
X0028520Y0066094D01*
X0029621Y0066094D01*
X0029988Y0066461D01*
X0029988Y0067929D01*
X0029621Y0068296D01*
X0028520Y0068296D01*
X0026310Y0068296D02*
X0027778Y0066094D01*
X0034100Y0068296D02*
X0035568Y0068296D01*
X0034834Y0068296D02*
X0034834Y0066094D01*
X0036310Y0066094D02*
X0037778Y0068296D01*
X0038520Y0068296D02*
X0038520Y0066094D01*
X0039621Y0066094D01*
X0039988Y0066461D01*
X0039988Y0067929D01*
X0039621Y0068296D01*
X0038520Y0068296D01*
X0036310Y0068296D02*
X0037778Y0066094D01*
X0044100Y0066461D02*
X0044467Y0066094D01*
X0045201Y0066094D01*
X0045568Y0066461D01*
X0045568Y0067195D01*
X0044834Y0067195D01*
X0044100Y0067929D02*
X0044100Y0066461D01*
X0044100Y0067929D02*
X0044467Y0068296D01*
X0045201Y0068296D01*
X0045568Y0067929D01*
X0046310Y0068296D02*
X0046310Y0066094D01*
X0047778Y0066094D02*
X0046310Y0068296D01*
X0047778Y0068296D02*
X0047778Y0066094D01*
X0048520Y0066094D02*
X0049621Y0066094D01*
X0049988Y0066461D01*
X0049988Y0067929D01*
X0049621Y0068296D01*
X0048520Y0068296D01*
X0048520Y0066094D01*
X0008400Y0097828D02*
X0007666Y0098562D01*
X0006198Y0098562D01*
X0006565Y0099304D02*
X0008033Y0099304D01*
X0008400Y0099671D01*
X0008400Y0100405D01*
X0008033Y0100772D01*
X0008033Y0101514D02*
X0008400Y0101881D01*
X0008400Y0102615D01*
X0008033Y0102982D01*
X0008033Y0101514D02*
X0006565Y0101514D01*
X0006198Y0101881D01*
X0006198Y0102615D01*
X0006565Y0102982D01*
X0006565Y0100772D02*
X0006198Y0100405D01*
X0006198Y0099671D01*
X0006565Y0099304D01*
X0006198Y0097094D02*
X0007666Y0097094D01*
X0008400Y0097828D01*
X0005033Y0093112D02*
X0003565Y0093112D01*
X0003198Y0092745D01*
X0003198Y0091644D01*
X0005400Y0091644D01*
X0005400Y0092745D01*
X0005033Y0093112D01*
X0005400Y0090902D02*
X0005400Y0089434D01*
X0003198Y0089434D01*
X0003198Y0090902D01*
X0004299Y0090168D02*
X0004299Y0089434D01*
X0005400Y0088692D02*
X0005400Y0087224D01*
X0003198Y0087224D01*
X0003565Y0086482D02*
X0003198Y0086115D01*
X0003198Y0085381D01*
X0003565Y0085014D01*
X0005033Y0085014D01*
X0005400Y0085381D01*
X0005400Y0086115D01*
X0005033Y0086482D01*
X0005033Y0084272D02*
X0005400Y0083905D01*
X0005400Y0083171D01*
X0005033Y0082804D01*
X0003565Y0082804D01*
X0003198Y0083171D01*
X0003198Y0083905D01*
X0003565Y0084272D01*
X0003198Y0082062D02*
X0004666Y0082062D01*
X0005400Y0081328D01*
X0004666Y0080594D01*
X0003198Y0080594D01*
X0107100Y0098961D02*
X0107467Y0098594D01*
X0108201Y0098594D01*
X0108568Y0098961D01*
X0108568Y0099328D01*
X0108201Y0099695D01*
X0107467Y0099695D01*
X0107100Y0100062D01*
X0107100Y0100429D01*
X0107467Y0100796D01*
X0108201Y0100796D01*
X0108568Y0100429D01*
X0109310Y0100796D02*
X0109310Y0098594D01*
X0109310Y0099695D02*
X0110044Y0099695D01*
X0109310Y0100796D02*
X0110778Y0100796D01*
X0111520Y0100796D02*
X0112621Y0100796D01*
X0112988Y0100429D01*
X0112988Y0098961D01*
X0112621Y0098594D01*
X0111520Y0098594D01*
X0111520Y0100796D01*
X0113730Y0100796D02*
X0113730Y0098594D01*
X0115198Y0098594D01*
X0115940Y0098594D02*
X0117407Y0098594D01*
X0118149Y0098594D02*
X0119250Y0098594D01*
X0119617Y0098961D01*
X0119617Y0100429D01*
X0119250Y0100796D01*
X0118149Y0100796D01*
X0118149Y0098594D01*
X0116673Y0099695D02*
X0115940Y0099695D01*
X0115940Y0100796D02*
X0115940Y0098594D01*
X0115940Y0100796D02*
X0117407Y0100796D01*
X0117407Y0108594D02*
X0115940Y0108594D01*
X0115940Y0110796D01*
X0115198Y0110796D02*
X0113730Y0109328D01*
X0114097Y0109695D02*
X0115198Y0108594D01*
X0113730Y0108594D02*
X0113730Y0110796D01*
X0112988Y0110429D02*
X0112621Y0110796D01*
X0111887Y0110796D01*
X0111520Y0110429D01*
X0111520Y0108961D01*
X0111887Y0108594D01*
X0112621Y0108594D01*
X0112988Y0108961D01*
X0112988Y0110429D01*
X0110778Y0110796D02*
X0109310Y0108594D01*
X0108568Y0108594D02*
X0107834Y0109328D01*
X0108201Y0109328D02*
X0107100Y0109328D01*
X0107100Y0108594D02*
X0107100Y0110796D01*
X0108201Y0110796D01*
X0108568Y0110429D01*
X0108568Y0109695D01*
X0108201Y0109328D01*
X0109310Y0110796D02*
X0110778Y0108594D01*
X0118149Y0108594D02*
X0119617Y0108594D01*
X0120359Y0108594D02*
X0120359Y0110796D01*
X0121460Y0110796D01*
X0121827Y0110429D01*
X0121827Y0108961D01*
X0121460Y0108594D01*
X0120359Y0108594D01*
X0118883Y0109695D02*
X0118149Y0109695D01*
X0118149Y0110796D02*
X0118149Y0108594D01*
X0118149Y0110796D02*
X0119617Y0110796D01*
X0117540Y0118594D02*
X0116440Y0118594D01*
X0116440Y0120796D01*
X0117540Y0120796D01*
X0117907Y0120429D01*
X0117907Y0118961D01*
X0117540Y0118594D01*
X0115698Y0118594D02*
X0114230Y0118594D01*
X0114230Y0120796D01*
X0115698Y0120796D01*
X0114964Y0119695D02*
X0114230Y0119695D01*
X0113488Y0118594D02*
X0112020Y0118594D01*
X0112020Y0120796D01*
X0111278Y0120796D02*
X0109810Y0118594D01*
X0111278Y0118594D02*
X0109810Y0120796D01*
X0109068Y0120796D02*
X0107600Y0120796D01*
X0108334Y0120796D02*
X0108334Y0118594D01*
X0108068Y0129594D02*
X0107334Y0130328D01*
X0107701Y0130328D02*
X0106600Y0130328D01*
X0106600Y0129594D02*
X0106600Y0131796D01*
X0107701Y0131796D01*
X0108068Y0131429D01*
X0108068Y0130695D01*
X0107701Y0130328D01*
X0108810Y0129594D02*
X0110278Y0131796D01*
X0111020Y0131796D02*
X0111020Y0129594D01*
X0112488Y0129594D01*
X0113230Y0129594D02*
X0114698Y0129594D01*
X0115440Y0129594D02*
X0116540Y0129594D01*
X0116907Y0129961D01*
X0116907Y0131429D01*
X0116540Y0131796D01*
X0115440Y0131796D01*
X0115440Y0129594D01*
X0113964Y0130695D02*
X0113230Y0130695D01*
X0113230Y0131796D02*
X0113230Y0129594D01*
X0113230Y0131796D02*
X0114698Y0131796D01*
X0114760Y0133694D02*
X0116228Y0133694D01*
X0116970Y0134061D02*
X0117337Y0133694D01*
X0118071Y0133694D01*
X0118438Y0134061D01*
X0118438Y0134428D01*
X0118071Y0134795D01*
X0117337Y0134795D01*
X0116970Y0135162D01*
X0116970Y0135529D01*
X0117337Y0135896D01*
X0118071Y0135896D01*
X0118438Y0135529D01*
X0119180Y0135896D02*
X0119180Y0133694D01*
X0120648Y0133694D01*
X0119914Y0134795D02*
X0119180Y0134795D01*
X0119180Y0135896D02*
X0120648Y0135896D01*
X0121390Y0135896D02*
X0122858Y0135896D01*
X0122124Y0135896D02*
X0122124Y0133694D01*
X0116228Y0135896D02*
X0114760Y0135896D01*
X0114760Y0133694D01*
X0114018Y0133694D02*
X0113285Y0134428D01*
X0113652Y0134428D02*
X0112551Y0134428D01*
X0112551Y0133694D02*
X0112551Y0135896D01*
X0113652Y0135896D01*
X0114018Y0135529D01*
X0114018Y0134795D01*
X0113652Y0134428D01*
X0114760Y0134795D02*
X0115494Y0134795D01*
X0108810Y0131796D02*
X0110278Y0129594D01*
D12*
X0095673Y0139668D02*
X0021500Y0139668D01*
X0021500Y0070494D02*
X0095673Y0070494D01*
X0045449Y0037298D02*
X0044698Y0038048D01*
X0043197Y0038048D01*
X0042446Y0037298D01*
X0042446Y0034295D01*
X0043197Y0033544D01*
X0044698Y0033544D01*
X0045449Y0034295D01*
X0045449Y0035796D01*
X0043947Y0035796D01*
X0040845Y0034295D02*
X0040094Y0033544D01*
X0038593Y0033544D01*
X0037842Y0034295D01*
X0037842Y0037298D01*
X0038593Y0038048D01*
X0040094Y0038048D01*
X0040845Y0037298D01*
X0040845Y0034295D01*
X0036241Y0033544D02*
X0034739Y0035046D01*
X0035490Y0035046D02*
X0033238Y0035046D01*
X0033238Y0033544D02*
X0033238Y0038048D01*
X0035490Y0038048D01*
X0036241Y0037298D01*
X0036241Y0035796D01*
X0035490Y0035046D01*
X0031637Y0035796D02*
X0030886Y0035046D01*
X0028634Y0035046D01*
X0028634Y0033544D02*
X0028634Y0038048D01*
X0030886Y0038048D01*
X0031637Y0037298D01*
X0031637Y0035796D01*
D13*
X0010000Y0087002D03*
X0111992Y0095494D03*
X0111992Y0105494D03*
X0111992Y0115494D03*
X0111992Y0125494D03*
D14*
X0104000Y0055494D02*
X0099000Y0055494D01*
X0106303Y0034865D02*
X0056697Y0034865D01*
X0056697Y0001400D01*
X0106303Y0001400D01*
X0106303Y0034865D01*
D15*
X0046500Y0042994D02*
X0044000Y0040494D01*
X0039000Y0040494D01*
X0036500Y0042994D01*
X0034000Y0040494D01*
X0029000Y0040494D01*
X0026500Y0042994D01*
X0026500Y0047994D01*
X0029000Y0050494D01*
X0034000Y0050494D01*
X0036500Y0047994D01*
X0039000Y0050494D01*
X0044000Y0050494D01*
X0046500Y0047994D01*
X0046500Y0042994D01*
X0036500Y0042994D02*
X0036500Y0047994D01*
X0026500Y0047994D02*
X0024000Y0050494D01*
X0019000Y0050494D01*
X0016500Y0047994D01*
X0014000Y0050494D01*
X0009000Y0050494D01*
X0006500Y0047994D01*
X0006500Y0042994D01*
X0009000Y0040494D01*
X0014000Y0040494D01*
X0016500Y0042994D01*
X0016500Y0047994D01*
X0016500Y0042994D02*
X0019000Y0040494D01*
X0024000Y0040494D01*
X0026500Y0042994D01*
M02*
