G75*
%MOIN*%
%OFA0B0*%
%FSLAX25Y25*%
%IPPOS*%
%LPD*%
%AMOC8*
5,1,8,0,0,1.08239X$1,22.5*
%
%ADD10C,0.00000*%
%ADD11C,0.07400*%
%ADD12C,0.06000*%
%ADD13C,0.01000*%
%ADD14C,0.02978*%
%ADD15C,0.00600*%
D10*
X0001500Y0030494D02*
X0001500Y0145455D01*
X0145201Y0145455D01*
X0145201Y0030494D01*
X0001500Y0030494D01*
D11*
X0061500Y0040494D03*
X0061500Y0050494D03*
X0071500Y0050494D03*
X0071500Y0040494D03*
X0081500Y0040494D03*
X0091500Y0040494D03*
X0091500Y0050494D03*
X0081500Y0050494D03*
X0101500Y0050494D03*
X0101500Y0040494D03*
D12*
X0041500Y0042494D02*
X0041500Y0048494D01*
X0031500Y0048494D02*
X0031500Y0042494D01*
X0021500Y0042494D02*
X0021500Y0048494D01*
X0011500Y0048494D02*
X0011500Y0042494D01*
D13*
X0007400Y0042477D02*
X0006500Y0042477D01*
X0006500Y0043475D02*
X0007400Y0043475D01*
X0007400Y0044474D02*
X0006500Y0044474D01*
X0006500Y0045472D02*
X0007400Y0045472D01*
X0007400Y0046471D02*
X0006500Y0046471D01*
X0006500Y0047469D02*
X0007400Y0047469D01*
X0007400Y0048468D02*
X0006500Y0048468D01*
X0006500Y0049466D02*
X0007465Y0049466D01*
X0007400Y0049310D02*
X0007400Y0041679D01*
X0008024Y0040172D01*
X0009178Y0039019D01*
X0010684Y0038394D01*
X0012316Y0038394D01*
X0013822Y0039019D01*
X0014976Y0040172D01*
X0015600Y0041679D01*
X0015600Y0049310D01*
X0014976Y0050817D01*
X0013822Y0051970D01*
X0012316Y0052594D01*
X0010684Y0052594D01*
X0009178Y0051970D01*
X0008024Y0050817D01*
X0007400Y0049310D01*
X0007878Y0050465D02*
X0006500Y0050465D01*
X0006500Y0051463D02*
X0008670Y0051463D01*
X0010364Y0052462D02*
X0006500Y0052462D01*
X0006500Y0053460D02*
X0026600Y0053460D01*
X0026600Y0052574D02*
X0024909Y0050884D01*
X0023822Y0051970D01*
X0022316Y0052594D01*
X0020684Y0052594D01*
X0019178Y0051970D01*
X0018024Y0050817D01*
X0017400Y0049310D01*
X0017400Y0041679D01*
X0018024Y0040172D01*
X0019178Y0039019D01*
X0020684Y0038394D01*
X0022316Y0038394D01*
X0023822Y0039019D01*
X0024976Y0040172D01*
X0025600Y0041679D01*
X0025600Y0047615D01*
X0027474Y0049489D01*
X0027400Y0049310D01*
X0027400Y0041679D01*
X0028024Y0040172D01*
X0029178Y0039019D01*
X0030684Y0038394D01*
X0032316Y0038394D01*
X0033822Y0039019D01*
X0034976Y0040172D01*
X0035600Y0041679D01*
X0035600Y0049310D01*
X0034976Y0050817D01*
X0033822Y0051970D01*
X0032900Y0052352D01*
X0032900Y0092113D01*
X0032080Y0092934D01*
X0031306Y0093707D01*
X0031306Y0095494D01*
X0055100Y0095494D01*
X0055100Y0082717D01*
X0055033Y0082689D01*
X0054305Y0081961D01*
X0053911Y0081009D01*
X0053911Y0079980D01*
X0054305Y0079028D01*
X0055033Y0078300D01*
X0055985Y0077906D01*
X0057015Y0077906D01*
X0057967Y0078300D01*
X0058695Y0079028D01*
X0059089Y0079980D01*
X0059089Y0081009D01*
X0058695Y0081961D01*
X0057967Y0082689D01*
X0057900Y0082717D01*
X0057900Y0095494D01*
X0105100Y0095494D01*
X0105100Y0081341D01*
X0104515Y0081583D01*
X0103485Y0081583D01*
X0102533Y0081189D01*
X0101805Y0080461D01*
X0101778Y0080394D01*
X0073041Y0080394D01*
X0072947Y0080488D01*
X0070053Y0080488D01*
X0069959Y0080394D01*
X0069722Y0080394D01*
X0069695Y0080461D01*
X0068967Y0081189D01*
X0068015Y0081583D01*
X0066985Y0081583D01*
X0066033Y0081189D01*
X0065305Y0080461D01*
X0064911Y0079509D01*
X0064911Y0078480D01*
X0065305Y0077528D01*
X0066033Y0076800D01*
X0066985Y0076406D01*
X0068015Y0076406D01*
X0068967Y0076800D01*
X0069695Y0077528D01*
X0069722Y0077594D01*
X0069939Y0077594D01*
X0069305Y0076961D01*
X0068911Y0076009D01*
X0068911Y0074980D01*
X0069305Y0074028D01*
X0070033Y0073300D01*
X0070985Y0072906D01*
X0072015Y0072906D01*
X0072967Y0073300D01*
X0073695Y0074028D01*
X0074089Y0074980D01*
X0074089Y0075001D01*
X0107080Y0075001D01*
X0107900Y0075821D01*
X0107900Y0095494D01*
X0140701Y0095494D01*
X0140701Y0034994D01*
X0006500Y0034994D01*
X0006500Y0095494D01*
X0026600Y0095494D01*
X0026600Y0052574D01*
X0026487Y0052462D02*
X0022636Y0052462D01*
X0024330Y0051463D02*
X0025489Y0051463D01*
X0027452Y0049466D02*
X0027465Y0049466D01*
X0027400Y0048468D02*
X0026453Y0048468D01*
X0025600Y0047469D02*
X0027400Y0047469D01*
X0027400Y0046471D02*
X0025600Y0046471D01*
X0025600Y0045472D02*
X0027400Y0045472D01*
X0027400Y0044474D02*
X0025600Y0044474D01*
X0025600Y0043475D02*
X0027400Y0043475D01*
X0027400Y0042477D02*
X0025600Y0042477D01*
X0025517Y0041478D02*
X0027483Y0041478D01*
X0027897Y0040480D02*
X0025103Y0040480D01*
X0024285Y0039481D02*
X0028715Y0039481D01*
X0030472Y0038483D02*
X0022528Y0038483D01*
X0020472Y0038483D02*
X0012528Y0038483D01*
X0014285Y0039481D02*
X0018715Y0039481D01*
X0017897Y0040480D02*
X0015103Y0040480D01*
X0015517Y0041478D02*
X0017483Y0041478D01*
X0017400Y0042477D02*
X0015600Y0042477D01*
X0015600Y0043475D02*
X0017400Y0043475D01*
X0017400Y0044474D02*
X0015600Y0044474D01*
X0015600Y0045472D02*
X0017400Y0045472D01*
X0017400Y0046471D02*
X0015600Y0046471D01*
X0015600Y0047469D02*
X0017400Y0047469D01*
X0017400Y0048468D02*
X0015600Y0048468D01*
X0015535Y0049466D02*
X0017465Y0049466D01*
X0017878Y0050465D02*
X0015122Y0050465D01*
X0014330Y0051463D02*
X0018670Y0051463D01*
X0020364Y0052462D02*
X0012636Y0052462D01*
X0006500Y0054459D02*
X0026600Y0054459D01*
X0026600Y0055457D02*
X0006500Y0055457D01*
X0006500Y0056456D02*
X0026600Y0056456D01*
X0026600Y0057454D02*
X0006500Y0057454D01*
X0006500Y0058453D02*
X0026600Y0058453D01*
X0026600Y0059451D02*
X0006500Y0059451D01*
X0006500Y0060450D02*
X0026600Y0060450D01*
X0026600Y0061448D02*
X0006500Y0061448D01*
X0006500Y0062447D02*
X0026600Y0062447D01*
X0026600Y0063445D02*
X0006500Y0063445D01*
X0006500Y0064444D02*
X0026600Y0064444D01*
X0026600Y0065442D02*
X0006500Y0065442D01*
X0006500Y0066441D02*
X0026600Y0066441D01*
X0026600Y0067439D02*
X0006500Y0067439D01*
X0006500Y0068438D02*
X0026600Y0068438D01*
X0026600Y0069436D02*
X0006500Y0069436D01*
X0006500Y0070435D02*
X0026600Y0070435D01*
X0026600Y0071433D02*
X0006500Y0071433D01*
X0006500Y0072432D02*
X0026600Y0072432D01*
X0026600Y0073430D02*
X0006500Y0073430D01*
X0006500Y0074429D02*
X0026600Y0074429D01*
X0026600Y0075427D02*
X0006500Y0075427D01*
X0006500Y0076426D02*
X0026600Y0076426D01*
X0026600Y0077425D02*
X0006500Y0077425D01*
X0006500Y0078423D02*
X0026600Y0078423D01*
X0026600Y0079422D02*
X0006500Y0079422D01*
X0006500Y0080420D02*
X0026600Y0080420D01*
X0026600Y0081419D02*
X0006500Y0081419D01*
X0006500Y0082417D02*
X0026600Y0082417D01*
X0026600Y0083416D02*
X0006500Y0083416D01*
X0006500Y0084414D02*
X0026600Y0084414D01*
X0026600Y0085413D02*
X0006500Y0085413D01*
X0006500Y0086411D02*
X0026600Y0086411D01*
X0026600Y0087410D02*
X0006500Y0087410D01*
X0006500Y0088408D02*
X0026600Y0088408D01*
X0026600Y0089407D02*
X0006500Y0089407D01*
X0006500Y0090405D02*
X0026600Y0090405D01*
X0026600Y0091404D02*
X0006500Y0091404D01*
X0006500Y0092402D02*
X0026600Y0092402D01*
X0026600Y0093401D02*
X0006500Y0093401D01*
X0006500Y0094399D02*
X0026600Y0094399D01*
X0026600Y0095398D02*
X0006500Y0095398D01*
X0031306Y0095398D02*
X0055100Y0095398D01*
X0055100Y0094399D02*
X0031306Y0094399D01*
X0031613Y0093401D02*
X0055100Y0093401D01*
X0055100Y0092402D02*
X0032611Y0092402D01*
X0032900Y0091404D02*
X0055100Y0091404D01*
X0055100Y0090405D02*
X0032900Y0090405D01*
X0032900Y0089407D02*
X0055100Y0089407D01*
X0055100Y0088408D02*
X0032900Y0088408D01*
X0032900Y0087410D02*
X0055100Y0087410D01*
X0055100Y0086411D02*
X0032900Y0086411D01*
X0032900Y0085413D02*
X0055100Y0085413D01*
X0055100Y0084414D02*
X0032900Y0084414D01*
X0032900Y0083416D02*
X0055100Y0083416D01*
X0054761Y0082417D02*
X0032900Y0082417D01*
X0032900Y0081419D02*
X0054080Y0081419D01*
X0053911Y0080420D02*
X0032900Y0080420D01*
X0032900Y0079422D02*
X0054142Y0079422D01*
X0054910Y0078423D02*
X0032900Y0078423D01*
X0032900Y0077425D02*
X0065409Y0077425D01*
X0064934Y0078423D02*
X0058090Y0078423D01*
X0058858Y0079422D02*
X0064911Y0079422D01*
X0065288Y0080420D02*
X0059089Y0080420D01*
X0058920Y0081419D02*
X0066587Y0081419D01*
X0068413Y0081419D02*
X0103087Y0081419D01*
X0101788Y0080420D02*
X0073015Y0080420D01*
X0069985Y0080420D02*
X0069712Y0080420D01*
X0069769Y0077425D02*
X0069591Y0077425D01*
X0069084Y0076426D02*
X0068064Y0076426D01*
X0066936Y0076426D02*
X0032900Y0076426D01*
X0032900Y0075427D02*
X0068911Y0075427D01*
X0069139Y0074429D02*
X0032900Y0074429D01*
X0032900Y0073430D02*
X0069903Y0073430D01*
X0073097Y0073430D02*
X0140701Y0073430D01*
X0140701Y0072432D02*
X0032900Y0072432D01*
X0032900Y0071433D02*
X0140701Y0071433D01*
X0140701Y0070435D02*
X0032900Y0070435D01*
X0032900Y0069436D02*
X0140701Y0069436D01*
X0140701Y0068438D02*
X0032900Y0068438D01*
X0032900Y0067439D02*
X0140701Y0067439D01*
X0140701Y0066441D02*
X0032900Y0066441D01*
X0032900Y0065442D02*
X0140701Y0065442D01*
X0140701Y0064444D02*
X0032900Y0064444D01*
X0032900Y0063445D02*
X0140701Y0063445D01*
X0140701Y0062447D02*
X0032900Y0062447D01*
X0032900Y0061448D02*
X0140701Y0061448D01*
X0140701Y0060450D02*
X0032900Y0060450D01*
X0032900Y0059451D02*
X0140701Y0059451D01*
X0140701Y0058453D02*
X0032900Y0058453D01*
X0032900Y0057454D02*
X0140701Y0057454D01*
X0140701Y0056456D02*
X0032900Y0056456D01*
X0032900Y0055457D02*
X0099946Y0055457D01*
X0100282Y0055566D02*
X0099504Y0055314D01*
X0098775Y0054942D01*
X0098112Y0054461D01*
X0097534Y0053882D01*
X0097053Y0053220D01*
X0096681Y0052491D01*
X0096428Y0051712D01*
X0096314Y0050994D01*
X0101000Y0050994D01*
X0101000Y0049994D01*
X0102000Y0049994D01*
X0102000Y0045309D01*
X0102718Y0045423D01*
X0103496Y0045675D01*
X0104225Y0046047D01*
X0104888Y0046528D01*
X0105466Y0047107D01*
X0105947Y0047769D01*
X0106319Y0048498D01*
X0106572Y0049277D01*
X0106686Y0049994D01*
X0102000Y0049994D01*
X0102000Y0050994D01*
X0106686Y0050994D01*
X0106572Y0051712D01*
X0106319Y0052491D01*
X0105947Y0053220D01*
X0105466Y0053882D01*
X0104888Y0054461D01*
X0104225Y0054942D01*
X0103496Y0055314D01*
X0102718Y0055566D01*
X0102000Y0055680D01*
X0102000Y0050995D01*
X0101000Y0050995D01*
X0101000Y0055680D01*
X0100282Y0055566D01*
X0101000Y0055457D02*
X0102000Y0055457D01*
X0102000Y0054459D02*
X0101000Y0054459D01*
X0101000Y0053460D02*
X0102000Y0053460D01*
X0102000Y0052462D02*
X0101000Y0052462D01*
X0101000Y0051463D02*
X0102000Y0051463D01*
X0102000Y0050465D02*
X0140701Y0050465D01*
X0140701Y0051463D02*
X0106611Y0051463D01*
X0106328Y0052462D02*
X0140701Y0052462D01*
X0140701Y0053460D02*
X0105773Y0053460D01*
X0104890Y0054459D02*
X0140701Y0054459D01*
X0140701Y0055457D02*
X0103054Y0055457D01*
X0101000Y0050465D02*
X0096300Y0050465D01*
X0096314Y0049994D02*
X0096428Y0049277D01*
X0096681Y0048498D01*
X0097053Y0047769D01*
X0097534Y0047107D01*
X0098112Y0046528D01*
X0098775Y0046047D01*
X0099504Y0045675D01*
X0100282Y0045423D01*
X0101000Y0045309D01*
X0101000Y0049994D01*
X0096314Y0049994D01*
X0096300Y0049540D02*
X0095569Y0047776D01*
X0094219Y0046425D01*
X0092455Y0045694D01*
X0090545Y0045694D01*
X0088781Y0046425D01*
X0087431Y0047776D01*
X0086700Y0049540D01*
X0086700Y0051449D01*
X0087431Y0053213D01*
X0088781Y0054564D01*
X0090545Y0055294D01*
X0092455Y0055294D01*
X0094219Y0054564D01*
X0095569Y0053213D01*
X0096300Y0051449D01*
X0096300Y0049540D01*
X0096270Y0049466D02*
X0096398Y0049466D01*
X0096697Y0048468D02*
X0095856Y0048468D01*
X0095263Y0047469D02*
X0097270Y0047469D01*
X0098192Y0046471D02*
X0094264Y0046471D01*
X0094219Y0044564D02*
X0092455Y0045294D01*
X0092175Y0045294D01*
X0092080Y0045389D01*
X0090920Y0045389D01*
X0090825Y0045294D01*
X0090545Y0045294D01*
X0088781Y0044564D01*
X0087431Y0043213D01*
X0086700Y0041449D01*
X0086700Y0039540D01*
X0087431Y0037776D01*
X0088781Y0036425D01*
X0090545Y0035694D01*
X0092455Y0035694D01*
X0094219Y0036425D01*
X0095569Y0037776D01*
X0096300Y0039540D01*
X0096300Y0041449D01*
X0095569Y0043213D01*
X0094219Y0044564D01*
X0094309Y0044474D02*
X0098691Y0044474D01*
X0098781Y0044564D02*
X0097431Y0043213D01*
X0096700Y0041449D01*
X0096700Y0039540D01*
X0097431Y0037776D01*
X0098781Y0036425D01*
X0100545Y0035694D01*
X0102455Y0035694D01*
X0104219Y0036425D01*
X0105569Y0037776D01*
X0106300Y0039540D01*
X0106300Y0041449D01*
X0105569Y0043213D01*
X0104219Y0044564D01*
X0102455Y0045294D01*
X0100545Y0045294D01*
X0098781Y0044564D01*
X0097692Y0043475D02*
X0095308Y0043475D01*
X0095874Y0042477D02*
X0097126Y0042477D01*
X0096712Y0041478D02*
X0096288Y0041478D01*
X0096300Y0040480D02*
X0096700Y0040480D01*
X0096724Y0039481D02*
X0096276Y0039481D01*
X0095862Y0038483D02*
X0097138Y0038483D01*
X0097722Y0037484D02*
X0095278Y0037484D01*
X0094279Y0036486D02*
X0098721Y0036486D01*
X0104279Y0036486D02*
X0140701Y0036486D01*
X0140701Y0037484D02*
X0105278Y0037484D01*
X0105862Y0038483D02*
X0140701Y0038483D01*
X0140701Y0039481D02*
X0106276Y0039481D01*
X0106300Y0040480D02*
X0140701Y0040480D01*
X0140701Y0041478D02*
X0106288Y0041478D01*
X0105874Y0042477D02*
X0140701Y0042477D01*
X0140701Y0043475D02*
X0105308Y0043475D01*
X0104309Y0044474D02*
X0140701Y0044474D01*
X0140701Y0045472D02*
X0102870Y0045472D01*
X0102000Y0045472D02*
X0101000Y0045472D01*
X0100130Y0045472D02*
X0042000Y0045472D01*
X0042000Y0044994D02*
X0042000Y0045994D01*
X0046000Y0045994D01*
X0046000Y0048849D01*
X0045889Y0049548D01*
X0045670Y0050222D01*
X0045349Y0050853D01*
X0044932Y0051426D01*
X0044432Y0051927D01*
X0043859Y0052343D01*
X0043227Y0052665D01*
X0042554Y0052884D01*
X0042000Y0052971D01*
X0042000Y0045995D01*
X0041000Y0045995D01*
X0041000Y0052971D01*
X0040446Y0052884D01*
X0039773Y0052665D01*
X0039141Y0052343D01*
X0038568Y0051927D01*
X0038068Y0051426D01*
X0037651Y0050853D01*
X0037330Y0050222D01*
X0037111Y0049548D01*
X0037000Y0048849D01*
X0037000Y0045994D01*
X0041000Y0045994D01*
X0041000Y0044994D01*
X0042000Y0044994D01*
X0042000Y0038018D01*
X0042554Y0038105D01*
X0043227Y0038324D01*
X0043859Y0038646D01*
X0044432Y0039062D01*
X0044932Y0039563D01*
X0045349Y0040136D01*
X0045670Y0040767D01*
X0045889Y0041441D01*
X0046000Y0042140D01*
X0046000Y0044994D01*
X0042000Y0044994D01*
X0042000Y0044474D02*
X0041000Y0044474D01*
X0041000Y0044994D02*
X0041000Y0038018D01*
X0040446Y0038105D01*
X0039773Y0038324D01*
X0039141Y0038646D01*
X0038568Y0039062D01*
X0038068Y0039563D01*
X0037651Y0040136D01*
X0037330Y0040767D01*
X0037111Y0041441D01*
X0037000Y0042140D01*
X0037000Y0044994D01*
X0041000Y0044994D01*
X0041000Y0045472D02*
X0035600Y0045472D01*
X0035600Y0044474D02*
X0037000Y0044474D01*
X0037000Y0043475D02*
X0035600Y0043475D01*
X0035600Y0042477D02*
X0037000Y0042477D01*
X0037105Y0041478D02*
X0035517Y0041478D01*
X0035103Y0040480D02*
X0037476Y0040480D01*
X0038149Y0039481D02*
X0034285Y0039481D01*
X0032528Y0038483D02*
X0039462Y0038483D01*
X0041000Y0038483D02*
X0042000Y0038483D01*
X0042000Y0039481D02*
X0041000Y0039481D01*
X0041000Y0040480D02*
X0042000Y0040480D01*
X0042000Y0041478D02*
X0041000Y0041478D01*
X0041000Y0042477D02*
X0042000Y0042477D01*
X0042000Y0043475D02*
X0041000Y0043475D01*
X0041000Y0046471D02*
X0042000Y0046471D01*
X0042000Y0047469D02*
X0041000Y0047469D01*
X0041000Y0048468D02*
X0042000Y0048468D01*
X0042000Y0049466D02*
X0041000Y0049466D01*
X0041000Y0050465D02*
X0042000Y0050465D01*
X0042000Y0051463D02*
X0041000Y0051463D01*
X0041000Y0052462D02*
X0042000Y0052462D01*
X0043626Y0052462D02*
X0057119Y0052462D01*
X0057431Y0053213D02*
X0056700Y0051449D01*
X0056700Y0049540D01*
X0057431Y0047776D01*
X0058781Y0046425D01*
X0060545Y0045694D01*
X0062455Y0045694D01*
X0064219Y0046425D01*
X0065569Y0047776D01*
X0066300Y0049540D01*
X0066300Y0051449D01*
X0065569Y0053213D01*
X0064219Y0054564D01*
X0062455Y0055294D01*
X0060545Y0055294D01*
X0058781Y0054564D01*
X0057431Y0053213D01*
X0057678Y0053460D02*
X0032900Y0053460D01*
X0032900Y0052462D02*
X0039374Y0052462D01*
X0038105Y0051463D02*
X0034330Y0051463D01*
X0035122Y0050465D02*
X0037453Y0050465D01*
X0037098Y0049466D02*
X0035535Y0049466D01*
X0035600Y0048468D02*
X0037000Y0048468D01*
X0037000Y0047469D02*
X0035600Y0047469D01*
X0035600Y0046471D02*
X0037000Y0046471D01*
X0043538Y0038483D02*
X0057138Y0038483D01*
X0057431Y0037776D02*
X0058781Y0036425D01*
X0060545Y0035694D01*
X0062455Y0035694D01*
X0064219Y0036425D01*
X0065569Y0037776D01*
X0066300Y0039540D01*
X0066300Y0041449D01*
X0065569Y0043213D01*
X0064219Y0044564D01*
X0062455Y0045294D01*
X0060545Y0045294D01*
X0058781Y0044564D01*
X0057431Y0043213D01*
X0056700Y0041449D01*
X0056700Y0039540D01*
X0057431Y0037776D01*
X0057722Y0037484D02*
X0006500Y0037484D01*
X0006500Y0036486D02*
X0058721Y0036486D01*
X0056724Y0039481D02*
X0044851Y0039481D01*
X0045524Y0040480D02*
X0056700Y0040480D01*
X0056712Y0041478D02*
X0045895Y0041478D01*
X0046000Y0042477D02*
X0057126Y0042477D01*
X0057692Y0043475D02*
X0046000Y0043475D01*
X0046000Y0044474D02*
X0058691Y0044474D01*
X0058736Y0046471D02*
X0046000Y0046471D01*
X0046000Y0047469D02*
X0057737Y0047469D01*
X0057144Y0048468D02*
X0046000Y0048468D01*
X0045902Y0049466D02*
X0056730Y0049466D01*
X0056700Y0050465D02*
X0045547Y0050465D01*
X0044895Y0051463D02*
X0056706Y0051463D01*
X0058676Y0054459D02*
X0032900Y0054459D01*
X0010472Y0038483D02*
X0006500Y0038483D01*
X0006500Y0039481D02*
X0008715Y0039481D01*
X0007897Y0040480D02*
X0006500Y0040480D01*
X0006500Y0041478D02*
X0007483Y0041478D01*
X0006500Y0035487D02*
X0140701Y0035487D01*
X0140701Y0046471D02*
X0104808Y0046471D01*
X0105730Y0047469D02*
X0140701Y0047469D01*
X0140701Y0048468D02*
X0106303Y0048468D01*
X0106602Y0049466D02*
X0140701Y0049466D01*
X0140701Y0074429D02*
X0073861Y0074429D01*
X0058239Y0082417D02*
X0105100Y0082417D01*
X0105100Y0081419D02*
X0104913Y0081419D01*
X0105100Y0083416D02*
X0057900Y0083416D01*
X0057900Y0084414D02*
X0105100Y0084414D01*
X0105100Y0085413D02*
X0057900Y0085413D01*
X0057900Y0086411D02*
X0105100Y0086411D01*
X0105100Y0087410D02*
X0057900Y0087410D01*
X0057900Y0088408D02*
X0105100Y0088408D01*
X0105100Y0089407D02*
X0057900Y0089407D01*
X0057900Y0090405D02*
X0105100Y0090405D01*
X0105100Y0091404D02*
X0057900Y0091404D01*
X0057900Y0092402D02*
X0105100Y0092402D01*
X0105100Y0093401D02*
X0057900Y0093401D01*
X0057900Y0094399D02*
X0105100Y0094399D01*
X0105100Y0095398D02*
X0057900Y0095398D01*
X0064324Y0054459D02*
X0068676Y0054459D01*
X0068781Y0054564D02*
X0067431Y0053213D01*
X0066700Y0051449D01*
X0066700Y0049540D01*
X0067431Y0047776D01*
X0068781Y0046425D01*
X0070545Y0045694D01*
X0072455Y0045694D01*
X0074219Y0046425D01*
X0075569Y0047776D01*
X0076300Y0049540D01*
X0076300Y0051449D01*
X0075569Y0053213D01*
X0074219Y0054564D01*
X0072455Y0055294D01*
X0070545Y0055294D01*
X0068781Y0054564D01*
X0067678Y0053460D02*
X0065322Y0053460D01*
X0065881Y0052462D02*
X0067119Y0052462D01*
X0066706Y0051463D02*
X0066294Y0051463D01*
X0066300Y0050465D02*
X0066700Y0050465D01*
X0066730Y0049466D02*
X0066270Y0049466D01*
X0065856Y0048468D02*
X0067144Y0048468D01*
X0067737Y0047469D02*
X0065263Y0047469D01*
X0064264Y0046471D02*
X0068736Y0046471D01*
X0068781Y0044564D02*
X0067431Y0043213D01*
X0066700Y0041449D01*
X0066700Y0039540D01*
X0067431Y0037776D01*
X0068781Y0036425D01*
X0070545Y0035694D01*
X0072455Y0035694D01*
X0074219Y0036425D01*
X0075569Y0037776D01*
X0076300Y0039540D01*
X0076300Y0041449D01*
X0075569Y0043213D01*
X0074219Y0044564D01*
X0072455Y0045294D01*
X0070545Y0045294D01*
X0068781Y0044564D01*
X0068691Y0044474D02*
X0064309Y0044474D01*
X0065308Y0043475D02*
X0067692Y0043475D01*
X0067126Y0042477D02*
X0065874Y0042477D01*
X0066288Y0041478D02*
X0066712Y0041478D01*
X0066700Y0040480D02*
X0066300Y0040480D01*
X0066276Y0039481D02*
X0066724Y0039481D01*
X0067138Y0038483D02*
X0065862Y0038483D01*
X0065278Y0037484D02*
X0067722Y0037484D01*
X0068721Y0036486D02*
X0064279Y0036486D01*
X0074279Y0036486D02*
X0078721Y0036486D01*
X0078781Y0036425D02*
X0080545Y0035694D01*
X0082455Y0035694D01*
X0084219Y0036425D01*
X0085569Y0037776D01*
X0086300Y0039540D01*
X0086300Y0041449D01*
X0085569Y0043213D01*
X0084219Y0044564D01*
X0082455Y0045294D01*
X0080545Y0045294D01*
X0078781Y0044564D01*
X0077431Y0043213D01*
X0076700Y0041449D01*
X0076700Y0039540D01*
X0077431Y0037776D01*
X0078781Y0036425D01*
X0077722Y0037484D02*
X0075278Y0037484D01*
X0075862Y0038483D02*
X0077138Y0038483D01*
X0076724Y0039481D02*
X0076276Y0039481D01*
X0076300Y0040480D02*
X0076700Y0040480D01*
X0076712Y0041478D02*
X0076288Y0041478D01*
X0075874Y0042477D02*
X0077126Y0042477D01*
X0077692Y0043475D02*
X0075308Y0043475D01*
X0074309Y0044474D02*
X0078691Y0044474D01*
X0078781Y0046425D02*
X0080545Y0045694D01*
X0082455Y0045694D01*
X0084219Y0046425D01*
X0085569Y0047776D01*
X0086300Y0049540D01*
X0086300Y0051449D01*
X0085569Y0053213D01*
X0084219Y0054564D01*
X0082455Y0055294D01*
X0080545Y0055294D01*
X0078781Y0054564D01*
X0077431Y0053213D01*
X0076700Y0051449D01*
X0076700Y0049540D01*
X0077431Y0047776D01*
X0078781Y0046425D01*
X0078736Y0046471D02*
X0074264Y0046471D01*
X0075263Y0047469D02*
X0077737Y0047469D01*
X0077144Y0048468D02*
X0075856Y0048468D01*
X0076270Y0049466D02*
X0076730Y0049466D01*
X0076700Y0050465D02*
X0076300Y0050465D01*
X0076294Y0051463D02*
X0076706Y0051463D01*
X0077119Y0052462D02*
X0075881Y0052462D01*
X0075322Y0053460D02*
X0077678Y0053460D01*
X0078676Y0054459D02*
X0074324Y0054459D01*
X0084324Y0054459D02*
X0088676Y0054459D01*
X0087678Y0053460D02*
X0085322Y0053460D01*
X0085881Y0052462D02*
X0087119Y0052462D01*
X0086706Y0051463D02*
X0086294Y0051463D01*
X0086300Y0050465D02*
X0086700Y0050465D01*
X0086730Y0049466D02*
X0086270Y0049466D01*
X0085856Y0048468D02*
X0087144Y0048468D01*
X0087737Y0047469D02*
X0085263Y0047469D01*
X0084264Y0046471D02*
X0088736Y0046471D01*
X0088691Y0044474D02*
X0084309Y0044474D01*
X0085308Y0043475D02*
X0087692Y0043475D01*
X0087126Y0042477D02*
X0085874Y0042477D01*
X0086288Y0041478D02*
X0086712Y0041478D01*
X0086700Y0040480D02*
X0086300Y0040480D01*
X0086276Y0039481D02*
X0086724Y0039481D01*
X0087138Y0038483D02*
X0085862Y0038483D01*
X0085278Y0037484D02*
X0087722Y0037484D01*
X0088721Y0036486D02*
X0084279Y0036486D01*
X0096294Y0051463D02*
X0096389Y0051463D01*
X0096672Y0052462D02*
X0095881Y0052462D01*
X0095322Y0053460D02*
X0097227Y0053460D01*
X0098110Y0054459D02*
X0094324Y0054459D01*
X0101000Y0049466D02*
X0102000Y0049466D01*
X0102000Y0048468D02*
X0101000Y0048468D01*
X0101000Y0047469D02*
X0102000Y0047469D01*
X0102000Y0046471D02*
X0101000Y0046471D01*
X0107507Y0075427D02*
X0140701Y0075427D01*
X0140701Y0076426D02*
X0107900Y0076426D01*
X0107900Y0077425D02*
X0140701Y0077425D01*
X0140701Y0078423D02*
X0107900Y0078423D01*
X0107900Y0079422D02*
X0140701Y0079422D01*
X0140701Y0080420D02*
X0107900Y0080420D01*
X0107900Y0081419D02*
X0140701Y0081419D01*
X0140701Y0082417D02*
X0107900Y0082417D01*
X0107900Y0083416D02*
X0140701Y0083416D01*
X0140701Y0084414D02*
X0107900Y0084414D01*
X0107900Y0085413D02*
X0140701Y0085413D01*
X0140701Y0086411D02*
X0107900Y0086411D01*
X0107900Y0087410D02*
X0140701Y0087410D01*
X0140701Y0088408D02*
X0107900Y0088408D01*
X0107900Y0089407D02*
X0140701Y0089407D01*
X0140701Y0090405D02*
X0107900Y0090405D01*
X0107900Y0091404D02*
X0140701Y0091404D01*
X0140701Y0092402D02*
X0107900Y0092402D01*
X0107900Y0093401D02*
X0140701Y0093401D01*
X0140701Y0094399D02*
X0107900Y0094399D01*
X0107900Y0095398D02*
X0140701Y0095398D01*
D14*
X0139712Y0135494D03*
X0106500Y0134077D03*
X0104000Y0078994D03*
X0071500Y0075494D03*
X0067500Y0078994D03*
X0056500Y0080494D03*
X0044500Y0093994D03*
X0038000Y0093994D03*
X0033000Y0093994D03*
X0056500Y0120494D03*
X0036500Y0135494D03*
X0031500Y0130494D03*
D15*
X0028000Y0126994D01*
X0028000Y0051994D01*
X0021500Y0045494D01*
X0031500Y0045494D02*
X0031500Y0091534D01*
X0029906Y0093127D01*
X0029906Y0123901D01*
X0036500Y0130494D01*
X0036500Y0135494D01*
X0056500Y0120494D02*
X0056500Y0080494D01*
X0067500Y0078994D02*
X0070539Y0078994D01*
X0070633Y0079088D01*
X0072367Y0079088D01*
X0072461Y0078994D01*
X0104000Y0078994D01*
X0106500Y0076401D02*
X0106500Y0134077D01*
X0116500Y0112283D02*
X0116500Y0060494D01*
X0106500Y0050494D01*
X0101500Y0050494D01*
X0091500Y0043989D02*
X0091500Y0040494D01*
X0106500Y0076401D02*
X0072406Y0076401D01*
X0071500Y0075494D01*
X0116500Y0112283D02*
X0139712Y0135494D01*
M02*
