%
M48
M72
T01C0.01378
T02C0.04000
%
T01
X33000Y93994
X38000Y93994
X44500Y93994
X56500Y80494
X67500Y78994
X71500Y75494
X104000Y78994
X106500Y134077
X139712Y135494
X56500Y120494
X36500Y135494
X31500Y130494
T02
X61500Y50494
X61500Y40494
X71500Y40494
X71500Y50494
X81500Y50494
X81500Y40494
X91500Y40494
X91500Y50494
X101500Y50494
X101500Y40494
X41500Y45494
X31500Y45494
X21500Y45494
X11500Y45494
M30
